<?xml version="1.0" standalone="no"?>
<!DOCTYPE svg PUBLIC "-//W3C//DTD SVG 20010904//EN"
 "http://www.w3.org/TR/2001/REC-SVG-20010904/DTD/svg10.dtd">
<svg version="1.0" xmlns="http://www.w3.org/2000/svg"
 width="820.000000pt" height="820.000000pt" viewBox="0 0 820.000000 820.000000"
 preserveAspectRatio="xMidYMid meet">
<metadata>
Created by potrace 1.11, written by Peter Selinger 2001-2013
</metadata>
<g transform="translate(0.000000,820.000000) scale(0.100000,-0.100000)"
fill="#000000" stroke="none">
<path d="M1864 8173 c-4 -16 -11 -34 -17 -40 -5 -7 -6 -13 -1 -13 5 0 -8 -11
-29 -24 -21 -13 -52 -38 -69 -55 -17 -17 -36 -31 -43 -31 -7 0 -18 -22 -25
-50 -7 -28 -18 -50 -25 -50 -19 0 -27 -30 -10 -36 20 -8 3 -39 -41 -79 -19
-17 -34 -35 -34 -42 0 -6 -6 -16 -14 -22 -8 -7 -18 -31 -21 -53 -4 -23 -17
-50 -29 -62 -21 -21 -34 -44 -56 -103 -7 -18 -16 -33 -21 -33 -5 0 -9 -11 -9
-25 0 -14 -9 -34 -20 -45 -11 -11 -20 -33 -20 -51 0 -17 -9 -42 -20 -56 -11
-14 -20 -31 -20 -37 0 -6 -19 -31 -41 -56 -22 -25 -45 -54 -50 -65 -5 -11 -18
-33 -29 -50 -25 -38 -25 -38 -52 -115 -25 -69 -26 -100 -3 -100 27 0 29 -65 5
-116 -13 -25 -24 -58 -25 -74 -1 -15 -6 -34 -11 -41 -4 -8 -9 -43 -10 -79 -1
-45 -8 -78 -23 -108 -12 -24 -22 -62 -22 -85 0 -23 0 -78 0 -122 0 -45 -4
-108 -10 -140 -5 -33 -16 -96 -24 -140 -8 -44 -20 -109 -26 -145 -6 -36 -15
-73 -20 -82 -5 -10 -9 -46 -9 -80 0 -99 -20 -330 -29 -342 -5 -6 -14 -28 -21
-49 -7 -22 -18 -51 -26 -65 -8 -15 -14 -37 -14 -49 0 -55 -17 -63 -71 -35 -25
12 -57 17 -119 17 -107 -1 -172 -29 -246 -108 -100 -107 -140 -236 -130 -427
8 -161 47 -288 119 -389 19 -26 62 -94 97 -151 34 -58 65 -107 69 -110 3 -3
15 -21 25 -40 11 -19 47 -78 81 -130 33 -52 73 -116 88 -142 54 -93 162 -225
275 -337 l116 -114 -2 -71 c-3 -59 1 -79 21 -116 30 -57 106 -115 177 -136 71
-21 184 -28 237 -16 56 13 52 26 83 -238 6 -52 16 -111 22 -130 7 -19 13 -57
13 -85 1 -27 7 -68 13 -90 6 -22 20 -83 32 -135 11 -52 27 -111 34 -130 7 -19
22 -62 32 -95 25 -82 108 -269 144 -328 17 -27 30 -55 30 -63 0 -8 3 -14 8
-14 4 0 19 -24 34 -53 25 -47 29 -67 36 -195 4 -79 4 -189 1 -243 -8 -116 -36
-184 -119 -294 -28 -36 -50 -69 -50 -74 0 -12 -154 -167 -172 -174 -20 -7 -25
-37 -6 -37 6 0 27 -12 47 -28 54 -41 101 -72 110 -72 4 0 17 -9 29 -21 12 -11
26 -18 31 -15 5 3 14 -1 21 -9 7 -8 27 -17 46 -21 19 -3 34 -9 34 -13 -1 -12
-27 -41 -39 -41 -6 0 -11 -4 -11 -10 0 -5 7 -10 15 -10 9 0 15 -10 16 -22 1
-17 2 -19 6 -5 5 19 18 22 28 7 4 -6 10 -8 15 -5 5 3 12 0 16 -6 4 -8 3 -9 -4
-5 -7 4 -12 2 -12 -4 0 -6 -5 -8 -11 -4 -6 3 -14 1 -18 -5 -5 -8 -16 -4 -34
12 -29 24 -34 46 -16 64 16 16 3 43 -21 43 -11 0 -20 6 -20 13 0 8 -4 7 -10
-3 -7 -12 -13 -13 -28 -4 -10 6 -37 15 -60 19 -23 4 -46 14 -52 23 -5 10 -10
13 -10 9 0 -4 -9 -3 -20 3 -11 6 -18 15 -15 20 3 5 0 12 -6 16 -8 4 -9 3 -5
-5 4 -6 0 -14 -11 -18 -10 -3 -22 -12 -26 -20 -4 -7 -16 -13 -25 -13 -15 0
-15 2 -2 10 12 8 11 10 -6 10 -11 0 -24 3 -28 7 -12 12 -44 10 -39 -3 6 -17
-14 -27 -33 -16 -14 8 -14 10 1 25 15 16 15 17 -8 17 -13 0 -39 -14 -57 -31
-23 -23 -34 -28 -40 -19 -6 9 -8 10 -12 0 -2 -8 -15 -5 -41 10 -20 12 -37 17
-37 11 0 -21 -20 -11 -26 14 -3 13 -12 29 -20 36 -8 7 -12 20 -9 30 4 12 1 19
-7 19 -10 0 -9 3 2 10 13 9 13 11 0 19 -8 5 -19 7 -25 3 -18 -11 -45 -12 -45
-1 0 6 -7 17 -15 26 -14 14 -18 12 -40 -13 -14 -16 -25 -35 -25 -42 0 -7 -8
-24 -17 -38 -12 -18 -13 -28 -5 -33 13 -8 4 -51 -11 -51 -6 0 -8 -2 -5 -5 7
-7 68 25 68 36 0 16 26 10 44 -10 10 -11 23 -18 29 -17 7 2 9 1 5 -1 -11 -7 3
-33 17 -33 7 0 18 -13 25 -30 8 -18 20 -30 31 -30 21 0 25 -20 7 -38 -10 -10
-8 -16 5 -29 12 -12 31 -16 72 -14 50 2 55 1 55 -18 0 -12 -3 -20 -7 -20 -29
5 -36 -2 -17 -17 18 -14 18 -15 -6 -8 -20 5 -23 4 -13 -6 7 -7 9 -25 6 -41 -3
-17 -1 -29 5 -29 6 0 13 -9 17 -20 6 -19 18 -19 495 -20 309 0 491 3 495 10 7
11 75 10 75 -2 0 -4 134 -8 298 -8 l297 1 -87 28 c-47 16 -101 32 -120 36 -18
3 -42 10 -53 15 -20 9 -93 30 -200 57 -33 8 -65 19 -71 23 -5 5 -34 12 -63 15
-29 2 -60 9 -69 14 -10 5 -26 5 -41 0 -16 -6 -28 -6 -35 1 -5 5 -20 10 -33 10
-13 0 -26 7 -29 15 -6 14 -41 31 -56 27 -5 -1 -8 4 -8 11 0 8 -9 22 -21 33
-12 10 -18 26 -15 37 2 10 -2 21 -10 24 -19 7 -18 67 1 86 16 17 10 28 -11 20
-8 -3 -14 0 -14 6 0 6 8 11 19 11 20 0 48 27 38 37 -4 3 -13 0 -21 -6 -24 -20
-16 25 20 107 9 20 21 32 33 32 23 0 36 16 22 25 -6 3 -8 12 -5 20 4 9 -3 19
-18 25 -12 6 -29 23 -35 37 -17 36 -16 48 3 29 8 -9 21 -16 27 -16 8 0 8 3 0
11 -6 6 -9 17 -6 24 2 8 -3 24 -11 37 -15 23 -14 26 3 45 20 21 20 21 0 38
-15 14 -16 21 -7 32 8 10 8 20 0 37 -6 14 -7 27 -1 33 17 17 14 94 -4 105 -9
5 -17 16 -17 25 0 8 -11 24 -25 35 -29 22 -32 38 -9 38 9 0 53 -39 98 -87 125
-135 188 -197 236 -238 39 -32 102 -89 210 -190 14 -13 42 -35 63 -49 l37 -25
0 25 c0 19 -7 29 -30 37 -17 6 -32 19 -35 28 -3 9 -17 20 -30 23 -14 4 -35 20
-47 36 -12 17 -25 30 -30 30 -18 0 -43 36 -40 58 2 13 -3 25 -12 28 -9 3 -16
13 -16 21 0 9 -6 13 -15 9 -8 -3 -15 -1 -15 4 0 6 -7 10 -15 10 -8 0 -15 8
-15 18 -1 21 -29 57 -53 66 -11 3 -21 15 -24 26 -3 11 -9 20 -14 20 -5 0 -9 6
-9 14 0 8 -9 18 -20 21 -20 6 -23 14 -21 51 1 12 -8 25 -23 33 -14 8 -22 19
-19 27 3 8 0 15 -6 15 -6 1 -16 2 -23 3 -7 0 -16 18 -21 39 -5 20 -14 37 -20
37 -7 0 -5 5 3 10 13 8 12 10 -2 10 -10 0 -18 4 -18 9 0 5 -9 11 -20 14 -14 3
-20 14 -20 31 0 16 -6 26 -15 26 -9 0 -15 9 -15 25 0 18 -4 23 -16 18 -13 -5
-15 -2 -9 15 5 17 2 22 -12 22 -15 0 -16 2 -3 10 13 9 13 11 0 20 -8 5 -21 8
-27 5 -7 -2 -13 0 -13 6 0 16 71 1 93 -19 14 -12 20 -13 30 -3 9 10 7 16 -10
28 -13 9 -23 24 -23 34 0 24 -16 24 -30 2 -10 -15 -10 -14 -6 8 6 29 -18 62
-27 37 -4 -10 -7 -11 -18 0 -11 10 -11 12 1 12 10 0 8 4 -5 13 -10 8 -15 19
-11 25 7 11 -22 52 -37 52 -10 0 -37 26 -37 35 0 4 9 5 20 2 11 -3 20 -2 20 1
-1 13 -27 42 -39 42 -6 0 -11 8 -12 18 0 15 -1 15 -8 -1 -8 -21 -17 -13 -40
31 -13 25 -24 133 -13 129 18 -6 11 17 -14 49 -16 19 -34 48 -41 64 -11 27
-10 30 8 30 11 0 19 -6 18 -12 -3 -26 1 -39 11 -33 5 3 10 1 10 -4 0 -6 14
-11 30 -11 21 0 30 5 30 16 0 9 8 23 18 30 15 12 15 13 0 14 -9 0 -19 6 -22
13 -3 6 -3 1 0 -12 4 -17 2 -22 -7 -19 -8 3 -13 15 -11 27 2 11 -4 28 -12 37
-23 23 -19 43 9 50 14 3 25 12 25 20 0 8 -6 11 -15 8 -10 -4 -15 0 -16 12 0
11 -2 34 -3 52 -2 17 0 32 5 32 5 0 9 5 9 10 0 6 -7 10 -15 10 -22 0 -18 23 5
38 27 16 28 72 2 79 -14 3 -18 11 -14 31 3 15 8 32 13 38 5 6 1 19 -10 30 -13
15 -16 26 -9 43 5 15 4 28 -3 37 -9 11 -5 17 20 27 30 13 31 14 11 23 -19 8
-19 11 -6 29 12 15 18 17 24 7 7 -10 13 -8 27 8 10 11 15 23 12 27 -4 3 1 12
11 19 16 12 16 13 -1 31 -14 17 -15 25 -6 53 9 24 9 38 1 51 -7 12 -8 20 -2
24 15 9 32 -5 26 -22 -9 -21 15 -11 28 13 6 10 17 23 24 27 21 14 15 47 -9 47
-17 0 -20 4 -15 24 7 27 -7 36 -59 36 -31 0 -54 14 -42 27 3 2 25 6 49 7 31 2
44 7 46 19 2 9 10 17 19 17 10 0 13 6 9 16 -4 9 -1 23 5 30 9 11 7 20 -5 39
-9 14 -21 25 -26 25 -6 0 -20 10 -32 22 -17 17 -21 32 -19 66 1 30 -3 50 -14
63 -10 10 -14 22 -11 27 9 15 -4 42 -20 42 -8 0 -14 7 -14 15 0 8 5 15 10 15
6 0 10 12 10 26 0 16 10 34 25 46 29 22 32 38 9 38 -10 0 -14 6 -10 15 3 8 1
15 -5 15 -6 0 -8 4 -5 9 10 15 -24 34 -62 35 -30 1 -36 -3 -34 -17 2 -10 -3
-17 -13 -17 -11 0 -15 11 -15 40 0 32 6 46 28 65 25 22 26 26 13 46 -8 13 -15
44 -17 70 -3 43 -1 46 16 42 25 -7 26 13 1 28 -15 10 -18 22 -14 70 3 52 1 59
-23 78 -20 16 -24 24 -16 34 17 20 17 67 1 110 -12 35 -12 40 4 49 13 7 15 13
8 22 -10 11 2 62 22 92 4 7 0 14 -8 18 -22 8 -18 34 10 62 30 30 30 33 8 50
-17 13 -17 13 0 14 9 0 17 7 17 15 0 8 5 15 11 15 7 0 9 10 5 26 -6 23 -4 26
13 21 12 -3 24 -1 27 4 3 5 -5 9 -17 9 -12 0 -19 3 -16 7 4 3 23 6 42 5 23 -1
38 4 41 13 5 11 16 13 48 9 88 -13 147 -10 157 8 6 11 5 19 -1 23 -14 8 6 35
25 35 8 0 22 10 32 23 17 21 42 27 106 27 43 -1 32 32 -16 43 -23 6 -37 15
-37 24 0 14 15 15 114 9 99 -6 118 -5 141 10 28 19 141 28 151 13 3 -6 16 -3
32 7 20 13 41 16 102 11 43 -3 87 -10 99 -17 25 -13 62 -5 58 13 -2 13 82 22
120 12 35 -8 28 -27 -9 -25 -18 1 -49 1 -68 1 -35 -2 -34 -2 22 -26 75 -31
138 -26 109 9 -18 21 4 30 38 16 28 -11 210 0 311 19 34 7 52 6 74 -6 20 -11
43 -13 76 -9 38 5 49 3 54 -9 9 -25 25 -17 22 13 -5 39 22 45 59 14 28 -23 30
-24 34 -6 5 27 -19 183 -30 190 -5 3 -9 14 -9 25 0 12 -17 30 -45 48 -39 24
-60 29 -172 40 -70 6 -157 11 -193 12 -65 0 -102 9 -101 22 3 23 -2 27 -32 27
-18 0 -42 -7 -53 -15 -27 -20 -36 -19 -29 5 5 16 2 20 -19 20 -14 0 -28 -5
-31 -11 -5 -7 -12 -6 -23 4 -10 8 -32 18 -51 22 -28 6 -33 5 -28 -8 4 -12 -2
-15 -28 -14 -19 1 -37 7 -39 14 -3 7 -16 13 -30 13 l-24 0 26 28 c15 15 51 43
79 62 60 40 66 52 23 44 -23 -5 -30 -3 -30 10 0 13 -11 16 -51 16 -39 0 -50
-3 -46 -14 4 -10 -7 -15 -45 -18 -28 -3 -54 -11 -58 -18 -4 -7 -28 -15 -54
-17 -38 -5 -44 -8 -35 -19 9 -11 8 -14 -6 -14 -9 0 -19 9 -22 20 -5 20 -23 28
-23 10 0 -5 -7 -10 -15 -10 -22 0 -18 -21 5 -27 31 -8 24 -19 -25 -43 -25 -12
-46 -28 -46 -36 -1 -8 -2 -18 -3 -23 -1 -8 -45 -51 -52 -51 -2 0 -1 7 2 15 4
10 0 15 -15 15 -12 0 -21 -4 -21 -9 0 -5 -10 -11 -22 -13 -15 -2 -22 -9 -20
-19 1 -9 -6 -19 -16 -21 -22 -6 -28 28 -6 36 22 9 18 46 -6 46 -15 0 -20 7
-20 29 0 33 19 45 54 31 28 -10 36 -6 29 20 -3 12 -11 16 -21 13 -12 -5 -14
-2 -8 18 19 63 19 68 -8 80 -28 13 -35 29 -12 29 9 0 12 7 9 20 -6 22 7 26 25
8 9 -9 12 -8 12 4 0 9 5 18 11 20 6 2 9 13 6 23 -5 19 -5 19 -12 -2 -9 -28 -9
-28 -37 0 -20 19 -21 26 -12 47 6 14 14 42 17 63 5 31 3 38 -8 33 -21 -8 -19
7 5 37 14 18 26 23 41 20 25 -7 43 15 27 34 -7 9 -16 10 -28 3 -23 -12 -46 10
-28 28 7 7 18 12 25 12 7 0 13 5 13 10 0 6 9 10 21 10 16 0 19 4 15 17 -4 9
-4 36 0 60 5 37 10 43 30 43 19 0 24 -5 24 -25 0 -16 6 -25 15 -25 24 0 95 24
95 32 0 5 7 8 15 8 13 0 15 10 11 55 -6 55 0 65 22 43 8 -8 8 -17 1 -30 -13
-25 -2 -43 17 -27 8 7 12 20 9 30 -4 12 -1 21 8 25 19 7 29 42 13 48 -7 3 -6
8 4 15 17 12 14 13 -43 14 -38 1 -32 31 8 35 39 5 52 18 29 31 -44 25 -45 26
-33 59 6 18 17 32 24 32 12 0 11 7 -1 36 -13 30 -13 38 -2 45 21 14 26 11 21
-15 -6 -28 9 -40 37 -31 15 5 20 15 20 43 0 59 10 82 34 82 14 0 25 9 32 28 7
18 18 28 34 29 13 1 28 9 32 18 5 8 16 21 24 28 9 6 35 31 59 55 24 23 46 42
50 42 4 0 20 15 36 33 l30 32 23 -29 c15 -18 26 -24 30 -17 4 6 0 18 -8 27 -9
8 -16 23 -16 32 1 15 2 15 15 -1 13 -18 14 -18 25 3 10 18 14 19 28 8 9 -7 6
0 -8 16 -17 20 -21 30 -12 33 6 3 12 11 12 19 0 8 5 14 11 14 6 0 8 11 4 28
-6 31 -11 30 103 36 69 4 135 19 157 36 6 4 35 10 65 13 94 9 120 18 120 38 0
26 45 36 69 15 21 -19 48 -21 53 -4 3 9 12 9 38 0 27 -10 39 -9 63 3 24 12 33
12 45 3 8 -7 30 -18 48 -24 31 -11 34 -10 34 8 0 19 5 20 70 16 55 -3 73 -8
84 -23 15 -20 15 -20 16 3 0 24 3 25 38 16 20 -6 32 -34 15 -34 -5 0 -13 -12
-20 -26 -10 -22 -9 -30 5 -50 10 -14 24 -22 34 -20 11 2 15 -1 11 -10 -3 -8 1
-14 9 -14 8 0 23 -9 33 -20 26 -29 55 -26 55 5 0 14 -4 25 -10 25 -5 0 -10 7
-10 15 0 8 5 15 10 15 6 0 10 7 10 15 0 21 24 29 48 16 13 -7 18 -17 15 -30
-4 -16 3 -22 33 -30 23 -6 42 -7 49 -1 17 14 144 15 158 1 8 -8 8 -14 -1 -23
-7 -7 -12 -23 -11 -38 0 -25 0 -25 9 -2 11 25 57 30 107 11 26 -10 27 -11 9
-21 -14 -8 -16 -12 -5 -19 17 -10 8 -20 -19 -22 -11 0 -18 -5 -16 -9 5 -8 109
-3 124 7 12 7 51 -16 84 -49 21 -21 30 -26 36 -16 11 19 29 3 23 -20 -4 -16
-2 -19 13 -14 18 5 18 5 2 -9 -23 -19 -23 -34 2 -47 16 -8 20 -8 20 4 0 8 5
18 12 22 8 5 9 0 6 -14 -4 -12 -2 -22 2 -22 5 0 7 -11 6 -24 -2 -19 2 -25 21
-29 22 -4 24 -2 19 19 -8 32 4 29 32 -7 23 -29 23 -29 3 -29 -14 0 -21 -6 -21
-20 0 -17 6 -19 51 -17 45 3 50 1 46 -15 -3 -10 0 -18 6 -18 7 0 34 -11 61
-25 60 -30 67 -31 96 -5 28 24 34 25 50 5 7 -8 20 -14 29 -13 8 2 16 -3 16
-10 0 -7 5 -16 10 -20 6 -4 18 -19 27 -34 14 -21 15 -27 4 -31 -19 -7 -31 -66
-17 -80 6 -6 11 -19 11 -28 0 -10 7 -24 15 -33 13 -13 13 -15 -5 -21 -11 -3
-29 -4 -39 0 -24 7 -42 -21 -30 -50 6 -17 8 -17 8 -2 1 16 21 25 21 9 0 -15
41 -53 51 -47 5 4 9 -1 9 -9 0 -8 -5 -18 -10 -21 -21 -13 3 -25 48 -25 38 -1
43 -3 29 -11 -18 -10 -18 -11 0 -25 17 -12 17 -13 1 -14 -14 0 -16 -5 -9 -22
6 -17 15 -22 35 -20 34 4 33 -5 -1 -20 -22 -9 -24 -12 -10 -15 9 -3 17 -8 17
-13 0 -5 12 -8 26 -7 16 1 29 -4 32 -13 5 -13 3 -13 -11 -1 -11 9 -17 10 -17
2 0 -10 14 -15 34 -12 20 4 45 -11 39 -25 -4 -10 3 -14 24 -14 38 0 78 -27 64
-44 -15 -18 39 -118 72 -134 15 -7 27 -19 27 -27 0 -8 6 -18 13 -22 6 -4 20
-26 30 -48 17 -36 20 -38 32 -22 12 17 14 17 39 -6 31 -29 32 -38 7 -61 -17
-16 -21 -52 -6 -75 3 -6 3 -16 -1 -23 -5 -8 -11 -6 -20 6 -12 17 -13 16 -23
-2 -8 -16 -7 -21 5 -26 8 -3 12 -11 8 -17 -4 -7 0 -17 8 -23 9 -7 21 -29 26
-50 10 -36 10 -38 -10 -32 -19 4 -18 1 7 -22 16 -15 34 -27 40 -27 5 0 11 -9
13 -20 2 -11 17 -34 33 -51 42 -44 15 -64 -32 -23 -18 15 -33 19 -57 15 -18
-3 -43 -1 -55 5 -15 7 -44 5 -97 -6 -41 -9 -118 -22 -170 -29 -52 -7 -134 -25
-183 -40 -48 -14 -92 -26 -97 -26 -10 0 -111 -67 -120 -80 -12 -17 -90 -49
-107 -44 -14 4 -15 4 -4 -4 11 -8 11 -10 0 -14 -8 -3 -18 1 -24 8 -14 18 -62
6 -68 -17 -3 -10 -1 -19 4 -19 5 0 9 -7 9 -15 0 -8 -4 -15 -10 -15 -5 0 -7 -6
-4 -13 2 -7 -5 -22 -16 -34 -21 -23 -26 -43 -11 -43 5 0 11 -11 13 -25 3 -14
2 -25 -2 -25 -4 0 -11 -14 -16 -31 -5 -17 -11 -29 -14 -28 -15 7 -49 -25 -55
-50 -3 -16 -13 -35 -21 -42 -10 -8 -11 -15 -3 -25 8 -10 4 -22 -15 -51 -14
-21 -26 -45 -26 -54 0 -9 -9 -24 -20 -34 -11 -10 -20 -24 -20 -31 0 -8 -7 -11
-17 -7 -10 3 -15 3 -11 -2 12 -13 -47 -60 -104 -81 -37 -13 -15 -29 39 -27 9
1 10 -4 2 -19 -8 -14 -8 -23 0 -31 8 -8 11 -6 11 6 0 16 3 15 30 -5 17 -12 30
-27 30 -32 0 -6 -16 -28 -35 -49 -19 -21 -35 -41 -35 -45 0 -4 -18 -15 -40
-24 -30 -14 -46 -15 -66 -8 -34 13 -36 10 -38 -42 -1 -24 -5 -48 -9 -54 -4 -7
-1 -17 7 -23 14 -12 26 -5 26 17 0 25 37 66 77 87 21 10 45 25 53 31 8 7 46
14 84 15 62 2 70 0 87 -22 10 -13 19 -29 19 -34 0 -6 8 -22 17 -35 10 -14 18
-29 19 -35 5 -29 43 -95 48 -86 5 7 14 6 30 -4 13 -9 30 -13 39 -10 10 4 17
-1 21 -13 4 -11 20 -25 37 -32 18 -8 28 -18 25 -26 -3 -7 -1 -14 3 -16 9 -3
54 -38 99 -76 22 -18 28 -19 30 -7 4 18 22 20 22 2 0 -13 36 -39 59 -43 8 -2
18 -10 23 -18 5 -9 19 -16 31 -15 12 0 16 3 9 6 -10 4 -9 8 4 18 18 13 49 4
66 -20 4 -5 20 -11 35 -13 72 -7 88 -6 89 6 3 25 5 27 17 11 8 -10 34 -18 77
-21 36 -3 86 -15 112 -26 57 -25 87 -20 80 14 -3 16 1 26 12 30 9 3 16 12 16
20 0 8 5 14 10 14 6 0 10 -9 10 -20 0 -27 18 -25 30 3 7 18 9 19 9 4 1 -26
-28 -54 -39 -38 -4 7 -14 11 -23 9 -13 -2 -14 -6 -2 -21 15 -21 64 -30 86 -16
11 7 11 9 -3 9 -10 0 -18 5 -18 10 0 6 8 10 19 10 12 0 21 -11 28 -32 5 -18
15 -32 21 -31 7 2 6 -12 -4 -40 -19 -51 -25 -105 -13 -112 4 -3 6 -19 2 -35
-4 -23 -2 -30 11 -30 10 0 16 -8 16 -23 0 -12 9 -28 20 -35 15 -9 20 -23 20
-52 0 -41 23 -91 71 -151 l29 -36 -23 -44 c-16 -32 -27 -43 -40 -41 -16 3 -17
1 -6 -16 7 -11 19 -18 26 -15 7 3 13 1 13 -5 0 -6 -5 -12 -12 -14 -7 -3 -13
-15 -14 -29 0 -13 -6 -35 -11 -49 -22 -54 -32 -92 -27 -105 3 -7 1 -16 -5 -20
-6 -3 -11 -1 -11 6 0 6 -19 -8 -42 -33 -24 -25 -50 -48 -58 -51 -12 -4 -9 -10
13 -31 36 -36 34 -59 -8 -82 -19 -10 -35 -24 -35 -31 0 -7 -5 -13 -11 -13 -13
0 -59 -41 -59 -53 0 -5 4 -5 10 -2 14 8 13 -48 -1 -62 -7 -7 -8 -17 -1 -29 5
-11 7 -25 5 -31 -3 -7 3 -13 12 -13 9 0 14 -4 11 -9 -3 -5 1 -14 9 -21 22 -19
19 -61 -5 -67 -27 -7 -38 -52 -16 -68 24 -18 19 -56 -11 -83 -23 -19 -25 -25
-13 -32 20 -12 1 -44 -27 -48 -19 -3 -34 -24 -46 -62 -3 -9 1 -24 8 -34 15
-19 10 -46 -8 -46 -19 0 -56 -41 -50 -56 3 -8 -1 -14 -11 -14 -19 0 -22 -20
-3 -20 6 0 4 -5 -6 -11 -9 -5 -22 -7 -27 -4 -6 3 -10 -1 -10 -9 0 -9 -7 -16
-16 -16 -12 0 -15 -7 -12 -24 3 -16 0 -26 -11 -30 -23 -8 -55 -29 -64 -43 -4
-7 -14 -10 -21 -7 -8 3 -17 1 -21 -5 -3 -7 3 -11 16 -11 19 0 21 -4 16 -35 -3
-19 -21 -54 -39 -77 -35 -44 -142 -152 -169 -172 -43 -30 -149 -137 -149 -151
0 -8 -6 -15 -13 -15 -8 0 -22 -9 -32 -20 -12 -13 -31 -20 -54 -20 -25 0 -40
-6 -49 -20 -7 -11 -20 -20 -30 -20 -10 0 -32 -16 -48 -35 -16 -20 -38 -35 -50
-35 -12 0 -27 -7 -34 -15 -7 -8 -21 -15 -31 -15 -13 0 -19 -7 -19 -23 0 -12
-9 -28 -19 -34 -13 -8 -18 -19 -14 -32 4 -14 -5 -32 -25 -55 -17 -19 -32 -32
-35 -29 -3 2 -14 0 -24 -6 -16 -9 -16 -10 5 -11 29 0 27 -33 -3 -38 -34 -7
-45 -23 -45 -63 0 -32 -3 -39 -20 -39 -11 0 -25 -9 -32 -20 -7 -11 -18 -20
-25 -20 -7 0 -13 -4 -13 -8 0 -13 -55 -72 -67 -72 -5 0 -18 -9 -28 -20 -10
-11 -25 -20 -34 -20 -9 0 -22 -9 -29 -20 -7 -11 -18 -20 -25 -20 -6 0 -36 -10
-64 -22 -37 -16 -53 -29 -53 -42 0 -16 -6 -18 -41 -13 -29 4 -46 1 -56 -9 -8
-8 -33 -15 -56 -15 -23 -1 -51 -3 -62 -5 -144 -23 -393 -29 -412 -11 -3 4 -22
7 -42 7 -70 1 -197 31 -333 80 -68 24 -168 86 -212 132 -17 18 -32 32 -34 30
-6 -6 -101 76 -122 106 -12 17 -29 32 -36 32 -8 0 -24 9 -36 20 -13 12 -30 27
-39 35 -19 18 -34 8 -18 -12 7 -7 12 -36 13 -63 0 -28 4 -50 7 -50 4 0 10 -11
13 -25 5 -18 13 -25 32 -25 13 0 27 -7 30 -15 7 -18 92 -75 113 -75 9 0 29
-14 45 -30 16 -17 34 -30 40 -30 6 0 47 -18 91 -40 44 -22 84 -40 88 -40 7 0
107 -41 172 -70 48 -22 169 -59 259 -80 93 -21 111 -22 429 -16 183 3 351 7
375 10 23 3 42 1 42 -4 0 -6 225 -10 560 -10 554 0 560 0 560 20 0 22 -19 61
-35 72 -5 4 -17 0 -26 -8 -16 -14 -18 -14 -21 8 -2 17 -9 23 -30 23 -14 0 -30
3 -34 8 -13 12 -33 8 -72 -17 -24 -16 -59 -26 -102 -31 -36 -3 -87 -12 -115
-20 -27 -8 -85 -13 -127 -13 l-78 1 -11 36 c-20 60 6 328 41 428 7 18 34 49
67 75 169 131 232 184 348 288 139 125 368 359 395 403 9 15 35 46 56 70 22
23 51 60 64 82 13 22 27 42 30 45 3 3 17 23 31 45 13 22 29 47 34 56 32 52
101 190 111 222 7 21 16 43 22 50 5 7 17 44 27 82 10 39 27 90 38 115 10 25
45 149 77 275 32 127 72 262 88 300 17 39 35 96 41 128 6 32 14 65 19 74 5 8
58 66 118 127 105 108 134 140 181 202 37 50 250 317 281 354 41 49 98 173
148 326 13 41 28 82 34 91 5 10 19 38 30 63 24 53 100 191 116 211 17 20 44
105 44 136 0 46 -22 101 -54 136 -31 34 -97 57 -163 57 l-26 0 6 234 c2 129 7
239 11 244 3 5 8 53 10 107 3 53 10 103 17 111 6 7 8 23 3 36 -3 12 -8 43 -9
68 -2 25 -6 100 -10 168 -7 105 -5 122 7 122 11 0 17 15 22 53 9 77 6 228 -5
248 -13 25 -11 73 3 87 13 13 -6 78 -48 164 -16 32 -26 77 -33 145 -5 54 -15
112 -21 128 -6 17 -13 73 -15 125 -1 55 -9 110 -18 131 -9 23 -12 42 -6 50 13
21 10 62 -7 84 -15 20 -39 94 -35 109 1 5 -6 17 -16 28 -15 17 -15 24 -5 65 9
32 10 49 2 57 -5 5 -10 22 -10 38 0 16 -7 31 -19 37 -22 12 -45 88 -27 94 7 3
3 13 -10 28 -34 38 -44 62 -33 82 6 9 8 21 4 26 -3 5 0 13 6 16 6 5 -2 15 -20
26 -17 10 -31 26 -31 36 0 18 -72 134 -96 154 -8 6 -14 26 -14 43 0 22 -8 37
-30 54 -16 13 -39 43 -50 68 -12 24 -39 56 -60 71 -22 16 -42 39 -45 52 -3 13
-20 38 -38 56 -18 18 -44 45 -58 61 -14 16 -40 39 -58 50 -29 19 -31 23 -17
37 9 9 16 20 16 26 0 10 -61 31 -92 31 -10 0 -18 7 -18 15 0 13 -277 15 -2435
15 l-2435 0 -6 -27z m2024 -1102 c-4 -36 -24 -37 -31 -2 -5 22 -11 29 -22 25
-8 -3 -15 -1 -15 5 0 6 -10 11 -22 11 -22 1 -22 1 -4 12 15 8 21 8 24 0 2 -7
8 -12 14 -12 6 0 8 7 4 15 -4 10 4 8 25 -7 21 -16 29 -29 27 -47z m-41 -13
c-3 -8 -6 -5 -6 6 -1 11 2 17 5 13 3 -3 4 -12 1 -19z m-297 -18 c0 -5 -5 -10
-11 -10 -5 0 -7 5 -4 10 3 6 8 10 11 10 2 0 4 -4 4 -10z m-160 -50 c0 -12 7
-31 15 -44 15 -23 15 -24 -15 -35 -23 -8 -32 -7 -34 2 -2 7 -7 20 -10 30 -8
24 10 67 29 67 8 0 15 -9 15 -20z m370 -40 c0 -5 -8 -10 -17 -10 -15 0 -16 2
-3 10 19 12 20 12 20 0z m767 -26 c-3 -3 -12 -4 -19 -1 -8 3 -5 6 6 6 11 1 17
-2 13 -5z m-1090 -26 c-3 -8 -6 -5 -6 6 -1 11 2 17 5 13 3 -3 4 -12 1 -19z
m-77 -28 c0 -5 -4 -10 -10 -10 -5 0 -10 5 -10 10 0 6 5 10 10 10 6 0 10 -4 10
-10z m-60 -134 c0 -3 -4 -8 -10 -11 -5 -3 -10 -1 -10 4 0 6 5 11 10 11 6 0 10
-2 10 -4z m2830 -1096 c8 -5 11 -10 5 -10 -5 0 -17 5 -25 10 -8 5 -10 10 -5
10 6 0 17 -5 25 -10z m-3045 -240 c3 -5 2 -10 -4 -10 -5 0 -13 5 -16 10 -3 6
-2 10 4 10 5 0 13 -4 16 -10z m3225 -96 c0 -8 -4 -12 -10 -9 -5 3 -10 10 -10
16 0 5 5 9 10 9 6 0 10 -7 10 -16z m17 -6 c-3 -8 -6 -5 -6 6 -1 11 2 17 5 13
3 -3 4 -12 1 -19z m-957 -529 c0 -6 -4 -7 -10 -4 -5 3 -10 11 -10 16 0 6 5 7
10 4 6 -3 10 -11 10 -16z m-4466 -64 c20 -9 39 -22 43 -30 3 -9 18 -15 37 -15
22 0 51 -14 94 -45 68 -50 97 -88 107 -144 4 -20 16 -51 27 -69 25 -40 15 -72
-30 -100 -61 -37 -101 -80 -108 -117 -4 -25 -11 -35 -20 -31 -8 3 -14 0 -14
-8 0 -18 61 -8 78 13 10 13 12 13 10 1 -2 -9 6 -16 21 -18 14 -2 21 0 17 6 -3
6 3 13 14 17 11 4 27 21 34 40 14 33 49 75 63 75 12 0 63 -53 63 -67 0 -7 9
-29 20 -49 12 -20 19 -39 16 -42 -3 -3 3 -11 14 -19 16 -12 20 -26 21 -81 0
-37 3 -61 6 -54 2 6 9 12 14 12 12 0 59 -102 59 -128 0 -11 5 -24 11 -27 17
-11 23 3 9 20 -15 18 -7 30 15 22 12 -5 15 -27 15 -126 0 -69 4 -122 10 -126
5 -3 22 -31 37 -61 22 -46 25 -59 15 -74 -6 -11 -10 -25 -8 -32 3 -7 7 -51 10
-97 4 -53 12 -94 22 -109 11 -16 17 -52 19 -101 2 -42 8 -106 14 -143 6 -36 8
-73 5 -82 -9 -23 -72 -25 -86 -3 -4 7 -11 12 -15 13 -4 0 -15 3 -23 7 -8 3
-24 7 -35 10 -11 2 -19 8 -18 14 1 6 -9 21 -22 33 -14 13 -25 28 -25 34 0 6
-14 29 -30 50 -27 36 -30 45 -24 93 4 42 2 54 -10 59 -8 3 -12 12 -9 20 4 10
-2 17 -16 21 -23 6 -51 54 -51 89 0 42 -17 34 -61 -26 -25 -34 -51 -60 -61
-60 -10 0 -18 4 -18 9 0 11 -80 91 -91 91 -4 0 -10 11 -13 25 -4 14 -10 24
-15 22 -14 -4 -111 103 -111 122 0 11 -3 21 -7 23 -15 6 -73 87 -73 101 0 8
-11 27 -24 42 -36 42 -69 112 -62 130 5 14 10 12 31 -11 14 -15 25 -35 25 -45
0 -10 5 -21 11 -25 6 -3 23 -25 38 -49 33 -52 152 -185 166 -185 6 0 24 -13
41 -28 34 -30 148 -77 164 -67 19 12 10 35 -20 50 -16 8 -34 15 -40 15 -5 0
-32 15 -58 33 -26 18 -60 39 -76 47 -32 16 -86 80 -104 124 -9 21 -18 27 -32
23 -20 -5 -24 2 -21 34 1 8 -5 29 -14 45 -8 16 -15 34 -15 41 0 7 -9 21 -20
31 -17 15 -21 34 -24 95 -2 44 -9 83 -16 92 -9 10 -13 39 -12 78 1 36 -3 64
-9 68 -8 5 -7 16 5 39 13 27 14 40 5 74 -6 23 -13 70 -14 105 -2 35 -9 67 -15
71 -7 4 -11 16 -9 26 1 11 -1 27 -5 36 -4 9 -2 26 4 38 7 13 8 20 2 16 -16
-10 -21 47 -6 76 13 26 27 31 100 36 12 1 38 -5 58 -13z m4902 -66 c4 -7 34
-9 95 -4 53 4 107 3 136 -4 26 -6 106 -14 176 -19 74 -5 131 -13 135 -19 4 -6
20 -15 36 -19 16 -4 31 -15 33 -25 3 -11 14 -19 26 -19 20 0 20 -1 5 -16 -12
-12 -20 -14 -36 -5 -11 6 -27 8 -35 5 -8 -3 -30 4 -48 15 -42 26 -78 29 -59 6
7 -9 21 -13 30 -10 13 4 17 1 16 -11 -1 -21 75 -45 116 -37 21 4 28 2 28 -11
0 -9 5 -16 10 -16 6 0 10 4 10 9 0 25 88 17 110 -10 3 -3 13 -8 23 -12 25 -9
21 -40 -8 -53 -25 -12 -112 -7 -120 6 -3 4 -26 3 -51 -2 -37 -8 -54 -7 -79 5
-26 12 -35 13 -56 2 -20 -12 -27 -11 -42 2 -55 50 -500 65 -636 22 -85 -27
-150 -38 -157 -28 -3 5 -17 9 -32 9 -94 1 -98 39 -10 104 34 25 69 46 78 46 9
0 25 9 34 19 10 10 34 22 54 26 20 4 44 13 52 20 8 8 39 15 67 16 29 1 58 6
65 11 18 11 26 10 34 -3z m59 -229 c-3 -5 -12 -10 -18 -10 -7 0 -6 4 3 10 19
12 23 12 15 0z m820 -90 c3 -5 2 -10 -4 -10 -5 0 -13 5 -16 10 -3 6 -2 10 4
10 5 0 13 -4 16 -10z m-76 -26 c17 -4 31 -13 31 -21 0 -16 -31 -10 -65 13 -21
15 -13 17 34 8z m-790 -48 c17 -20 3 -46 -25 -46 -18 0 -24 5 -24 23 0 38 26
50 49 23z m-5131 -64 c5 -31 -15 -27 -21 3 -3 16 0 24 7 22 6 -2 12 -13 14
-25z m5005 -7 c32 -8 73 -15 92 -15 18 0 53 -8 77 -18 24 -11 58 -18 77 -16
42 3 61 -4 61 -22 0 -9 11 -14 29 -14 16 0 34 -6 40 -14 7 -9 29 -13 56 -12
25 0 46 -1 48 -4 1 -3 27 -13 57 -24 30 -10 62 -25 72 -33 9 -8 22 -15 30 -17
21 -3 42 -19 56 -44 11 -20 10 -30 -13 -77 -29 -62 -29 -62 -12 -68 6 -2 4 -3
-6 -1 -10 1 -34 -4 -53 -12 -21 -9 -48 -12 -67 -9 -24 5 -39 1 -57 -13 -28
-22 -78 -34 -86 -21 -3 5 -17 9 -31 9 -24 0 -124 23 -163 38 -8 3 -19 6 -25 7
-5 0 -17 4 -25 7 -8 3 -37 12 -65 19 -78 20 -207 78 -223 100 -8 12 -20 18
-29 15 -8 -3 -21 1 -29 9 -9 8 -31 15 -50 15 -23 0 -34 5 -34 15 0 8 -18 26
-39 40 -39 24 -81 63 -81 74 1 18 33 44 57 47 15 2 45 5 66 8 24 3 37 0 37 -7
0 -7 6 -3 12 8 6 11 18 25 26 31 23 17 130 16 195 -1z m-486 -45 c-1 -23 -23
-34 -33 -18 -4 6 1 17 11 25 24 17 24 17 22 -7z m-3237 -80 c0 -5 -7 -10 -16
-10 -8 0 -12 5 -9 10 3 6 10 10 16 10 5 0 9 -4 9 -10z m3710 -255 c0 -17 -62
-4 -68 14 -3 10 0 12 11 8 9 -3 19 -2 23 4 7 12 34 -8 34 -26z m111 -41 c8 -8
24 -14 35 -14 10 0 26 -5 34 -10 13 -8 12 -10 -5 -11 -33 -2 -60 2 -69 12 -6
5 -18 9 -27 9 -10 0 -31 11 -46 24 l-28 25 45 -10 c25 -6 52 -17 61 -25z m154
-54 c3 -5 -1 -10 -9 -10 -9 0 -16 5 -16 10 0 6 4 10 9 10 6 0 13 -4 16 -10z
m-3891 -55 c3 -9 0 -15 -9 -15 -8 0 -15 7 -15 15 0 8 4 15 9 15 5 0 11 -7 15
-15z m4517 -26 c26 -13 17 -26 -21 -27 -33 -1 -36 2 -17 23 15 17 14 17 38 4z
m-4526 -19 c-3 -5 -10 -10 -16 -10 -5 0 -9 5 -9 10 0 6 7 10 16 10 8 0 12 -4
9 -10z m4562 -46 c-3 -3 -12 -4 -19 -1 -8 3 -5 6 6 6 11 1 17 -2 13 -5z m-270
-66 c-3 -8 -6 -5 -6 6 -1 11 2 17 5 13 3 -3 4 -12 1 -19z m-4304 -58 c-3 -11
-9 -20 -14 -20 -16 0 -23 32 -8 40 19 12 28 3 22 -20z m-59 -81 c-7 -11 -34
-12 -34 -1 0 14 11 21 26 15 8 -3 11 -9 8 -14z m30 -1175 c30 -12 12 -44 -25
-44 -5 0 -9 11 -9 25 0 26 7 29 34 19z m-750 -1755 c-8 -13 -21 -11 -27 5 -4
10 0 12 14 9 10 -3 16 -9 13 -14z m91 -29 c3 -5 -1 -10 -10 -10 -9 0 -13 5
-10 10 3 6 8 10 10 10 2 0 7 -4 10 -10z m318 -64 c9 3 28 -3 42 -14 25 -20 25
-20 6 -43 -11 -13 -23 -20 -27 -16 -5 4 -2 12 6 17 10 6 7 10 -16 15 -16 4
-38 10 -49 13 -11 3 -24 6 -29 7 -5 0 -11 5 -13 12 -5 14 37 22 53 11 6 -5 19
-6 27 -2z m193 3 c3 -6 0 -15 -7 -20 -19 -12 -49 -11 -49 1 0 6 7 10 15 10 8
0 15 5 15 10 0 13 17 13 26 -1z m58 -54 c3 -8 16 -15 28 -15 13 0 31 -7 41
-14 18 -14 24 -56 7 -56 -5 0 -10 -5 -10 -11 0 -6 8 -8 19 -4 11 3 22 1 26 -5
3 -5 15 -10 26 -10 23 0 25 -15 3 -24 -33 -13 -94 26 -94 59 0 9 -8 19 -17 22
-10 4 -22 13 -26 20 -5 8 -22 13 -43 11 -34 -2 -45 -13 -22 -20 6 -2 9 -11 5
-20 -7 -20 -47 -13 -47 8 0 8 -5 23 -12 34 -14 22 -4 38 14 23 16 -13 55 -10
70 5 16 16 25 15 32 -3z m246 -11 c0 -8 -9 -14 -20 -14 -22 0 -28 26 -7 33 16
6 27 -1 27 -19z m61 0 c11 -14 10 -15 -11 -12 -13 1 -25 9 -28 16 -5 17 23 15
39 -4z m-326 -74 c-3 -5 -10 -10 -16 -10 -5 0 -9 5 -9 10 0 6 7 10 16 10 8 0
12 -4 9 -10z m395 -15 c0 -8 -7 -15 -17 -15 -14 0 -14 -2 2 -20 10 -11 23 -20
30 -20 14 0 38 -48 29 -61 -3 -5 -9 -7 -14 -4 -5 3 -11 1 -15 -4 -10 -16 -32
-2 -61 40 -14 21 -31 39 -36 39 -5 0 -6 -4 -3 -10 7 -11 -8 -14 -18 -4 -11 12
55 62 74 57 11 -3 19 0 19 6 0 6 2 11 5 11 3 0 5 -7 5 -15z m-733 -81 c-3 -3
-12 -4 -19 -1 -8 3 -5 6 6 6 11 1 17 -2 13 -5z m583 -4 c0 -5 -2 -10 -4 -10
-3 0 -8 5 -11 10 -3 6 -1 10 4 10 6 0 11 -4 11 -10z m-56 -16 c22 -8 20 -31
-1 -31 -20 0 -35 16 -27 29 6 10 8 10 28 2z m-489 -14 c3 -5 1 -10 -4 -10 -6
0 -11 5 -11 10 0 6 2 10 4 10 3 0 8 -4 11 -10z"/>
<path d="M3370 6935 c0 -8 5 -15 10 -15 6 0 10 7 10 15 0 8 -4 15 -10 15 -5 0
-10 -7 -10 -15z"/>
<path d="M1015 4090 c3 -5 10 -10 16 -10 5 0 9 5 9 10 0 6 -7 10 -16 10 -8 0
-12 -4 -9 -10z"/>
<path d="M1385 4060 c3 -5 8 -10 11 -10 2 0 4 5 4 10 0 6 -5 10 -11 10 -5 0
-7 -4 -4 -10z"/>
<path d="M1130 3720 c-7 -5 -20 -6 -28 -2 -10 3 -13 0 -10 -9 3 -8 12 -13 21
-13 9 1 18 -9 21 -22 4 -13 20 -31 36 -39 17 -9 30 -19 30 -24 0 -4 18 -13 40
-20 43 -13 50 -24 23 -40 -17 -9 -17 -11 2 -25 31 -24 36 -22 39 17 1 6 6 18
13 24 6 7 13 16 15 20 4 11 90 53 106 53 7 0 11 4 8 8 -3 5 9 6 27 4 28 -4 30
-3 19 11 -20 23 -88 19 -149 -10 -58 -27 -78 -23 -106 20 -17 27 -89 58 -107
47z"/>
<path d="M1497 3613 c-5 -7 -5 -13 -1 -13 4 0 -1 -9 -11 -20 -21 -23 -14 -47
17 -59 33 -12 45 -4 45 29 0 22 -5 30 -18 30 -11 0 -19 9 -21 23 -2 15 -5 18
-11 10z"/>
<path d="M1541 3494 c0 -11 3 -14 6 -6 3 7 2 16 -1 19 -3 4 -6 -2 -5 -13z"/>
<path d="M1275 3490 c-3 -5 -1 -10 4 -10 6 0 11 5 11 10 0 6 -2 10 -4 10 -3 0
-8 -4 -11 -10z"/>
<path d="M5404 4114 c3 -9 6 -20 6 -25 0 -5 19 -9 42 -9 41 0 41 0 23 20 -10
12 -25 18 -32 16 -7 -3 -13 -1 -13 4 0 6 -7 10 -16 10 -11 0 -14 -5 -10 -16z"/>
<path d="M5498 4073 c-26 -7 -22 -23 6 -23 33 0 57 10 50 21 -5 9 -26 10 -56
2z"/>
<path d="M4090 6950 c0 -5 7 -10 16 -10 8 0 12 5 9 10 -3 6 -10 10 -16 10 -5
0 -9 -4 -9 -10z"/>
<path d="M4240 6930 c0 -5 15 -10 33 -10 24 0 28 3 17 10 -20 13 -50 13 -50 0z"/>
<path d="M3900 6890 c-13 -8 -13 -10 2 -10 9 0 20 5 23 10 8 13 -5 13 -25 0z"/>
<path d="M4816 6814 c-7 -18 0 -34 15 -34 12 0 12 37 0 44 -5 3 -12 -1 -15
-10z"/>
<path d="M3440 6793 c0 -5 5 -15 10 -23 8 -12 10 -11 10 8 0 12 -4 22 -10 22
-5 0 -10 -3 -10 -7z"/>
<path d="M3265 6610 c3 -5 8 -10 11 -10 2 0 4 5 4 10 0 6 -5 10 -11 10 -5 0
-7 -4 -4 -10z"/>
<path d="M5596 6361 c-12 -19 7 -39 41 -46 45 -8 53 0 14 13 -36 13 -43 37 -8
27 17 -5 19 -4 7 4 -19 13 -47 14 -54 2z"/>
<path d="M3430 6261 c0 -5 5 -13 10 -16 6 -3 10 -2 10 4 0 5 -4 13 -10 16 -5
3 -10 2 -10 -4z"/>
<path d="M2970 6185 c-8 -9 -8 -15 -2 -15 12 0 26 19 19 26 -2 2 -10 -2 -17
-11z"/>
<path d="M5580 6099 c0 -25 33 -22 38 4 2 12 -3 17 -17 17 -15 0 -21 -6 -21
-21z"/>
<path d="M2880 5945 c0 -9 6 -12 15 -9 8 4 15 10 15 15 0 5 -7 9 -15 9 -8 0
-15 -7 -15 -15z"/>
<path d="M2836 5423 c-11 -11 -6 -23 9 -23 8 0 15 4 15 9 0 13 -16 22 -24 14z"/>
<path d="M4005 5121 c-3 -10 1 -38 9 -62 9 -24 13 -54 10 -66 -7 -27 19 -73
41 -73 21 0 19 23 -5 53 -22 27 -26 47 -10 47 13 0 13 37 1 45 -5 3 -12 19
-16 35 -8 37 -22 47 -30 21z"/>
<path d="M3400 4860 c0 -5 7 -10 16 -10 8 0 12 5 9 10 -3 6 -10 10 -16 10 -5
0 -9 -4 -9 -10z"/>
<path d="M3145 4701 c4 -10 -2 -12 -24 -8 -17 4 -33 2 -36 -3 -3 -6 -20 -10
-37 -10 -17 0 -39 -7 -48 -15 -10 -9 -43 -20 -74 -25 -31 -5 -69 -18 -84 -28
-15 -11 -51 -25 -79 -32 -34 -8 -61 -21 -76 -38 -13 -15 -32 -32 -43 -38 -10
-6 -19 -17 -19 -25 0 -24 93 -11 132 18 18 14 33 23 33 20 0 -3 23 3 50 14 61
23 106 25 114 4 3 -8 0 -16 -7 -16 -76 -8 -191 -46 -240 -78 -52 -36 -150 -74
-185 -72 -15 0 -22 -4 -19 -12 2 -7 24 -12 60 -12 30 0 59 -3 63 -8 4 -4 -3
-18 -15 -31 l-23 -24 34 -16 c28 -14 40 -15 64 -5 16 6 37 13 47 15 9 2 27 7
40 10 24 6 60 7 92 2 14 -2 20 2 19 15 -1 9 4 17 11 17 6 0 27 7 45 16 40 21
189 21 205 2 7 -9 42 -13 105 -14 118 -1 172 -5 185 -14 18 -14 215 -22 229
-11 28 23 232 -11 299 -50 10 -5 41 -13 69 -16 45 -5 50 -4 46 13 -2 11 -22
28 -45 39 -24 11 -43 26 -43 32 0 7 -15 19 -32 27 -18 7 -44 25 -57 40 -14 14
-30 26 -38 26 -7 0 -13 7 -13 14 0 19 -39 61 -65 70 -28 9 -81 54 -73 62 4 3
21 1 39 -5 18 -6 41 -11 52 -11 10 0 38 -15 60 -32 37 -30 83 -58 93 -58 2 0
4 7 4 15 0 8 -5 15 -10 15 -6 0 -16 11 -22 25 -6 14 -17 25 -23 25 -7 0 -18 7
-25 15 -7 8 -20 15 -29 15 -9 0 -22 9 -29 20 -7 11 -18 20 -25 20 -7 0 -31 9
-54 20 -37 18 -154 48 -213 55 -14 2 -27 4 -30 5 -3 1 -9 2 -14 1 -4 -1 -14 3
-22 9 -7 7 -34 10 -59 9 -31 -2 -49 1 -55 11 -7 11 -11 11 -24 1 -10 -9 -25
-11 -43 -6 -16 4 -54 8 -86 9 -45 1 -56 -2 -52 -13z m255 -255 c0 -24 -19 -66
-30 -66 -5 0 -10 18 -10 40 0 33 3 40 20 40 11 0 20 -6 20 -14z m330 -24 c27
-23 41 -43 36 -50 -9 -16 -89 -15 -104 0 -22 22 -12 88 13 88 7 0 32 -17 55
-38z"/>
<path d="M2360 4700 c0 -5 10 -10 23 -10 18 0 19 2 7 10 -19 13 -30 13 -30 0z"/>
<path d="M2455 4680 c28 -12 37 -12 30 0 -3 6 -16 10 -28 9 -21 0 -21 -1 -2
-9z"/>
<path d="M3976 4441 c-6 -10 44 -55 52 -47 8 8 -9 26 -24 26 -8 0 -13 4 -9 9
3 5 1 12 -4 15 -5 4 -12 2 -15 -3z"/>
<path d="M4210 4281 c0 -5 9 -19 20 -32 l19 -24 1 22 c0 12 -9 27 -20 33 -11
6 -20 7 -20 1z"/>
<path d="M4204 4148 c-4 -7 -14 -23 -22 -35 -14 -22 -13 -23 14 -23 43 0 56
13 48 43 -7 28 -28 36 -40 15z"/>
<path d="M4090 4065 c-7 -8 -18 -15 -24 -15 -21 0 -176 -80 -176 -90 0 -6 -6
-10 -12 -9 -26 4 -183 -46 -208 -67 -8 -6 -53 -15 -100 -18 -47 -3 -101 -8
-120 -11 -19 -4 -92 -8 -162 -10 -123 -3 -126 -2 -130 19 -3 12 1 28 9 34 7 7
13 16 13 20 0 13 -71 11 -76 -2 -3 -9 -26 -11 -76 -9 -91 5 -104 1 -84 -29 14
-21 9 -51 -8 -49 -42 6 -50 -13 -9 -24 39 -9 52 -23 45 -47 -3 -15 -1 -19 9
-16 8 3 15 16 16 29 0 13 1 30 2 37 1 6 8 12 17 12 10 0 14 -6 11 -14 -4 -9 2
-17 14 -21 15 -5 17 -10 9 -20 -6 -8 -7 -16 -2 -19 9 -6 83 -1 155 9 24 4 36
2 33 -4 -4 -6 5 -6 26 0 25 7 34 6 41 -6 12 -21 60 -19 90 5 14 11 29 20 34
19 9 -2 38 7 63 20 9 5 35 7 58 4 27 -3 42 0 42 7 0 8 15 10 50 5 41 -6 50 -4
50 8 0 15 34 30 45 19 14 -14 35 -8 50 14 8 13 24 24 35 24 11 0 20 5 20 11 0
7 11 8 30 4 29 -6 36 -3 81 38 10 9 30 17 42 17 23 0 57 27 57 45 0 5 21 28
48 52 39 36 43 43 26 43 -12 0 -27 -7 -34 -15z m-1057 -190 c7 -18 -6 -27 -27
-19 -9 3 -16 1 -16 -5 0 -6 -4 -11 -10 -11 -5 0 -10 7 -10 15 0 8 9 15 20 15
11 0 20 5 20 10 0 15 17 12 23 -5z m97 -20 c10 -12 10 -15 -4 -15 -9 0 -16 7
-16 15 0 8 2 15 4 15 2 0 9 -7 16 -15z m549 -19 c-13 -11 -49 -16 -49 -6 0 14
44 31 49 18 1 -5 1 -11 0 -12z"/>
<path d="M5020 4050 c0 -5 5 -10 10 -10 6 0 10 5 10 10 0 6 -4 10 -10 10 -5 0
-10 -4 -10 -10z"/>
<path d="M2080 3840 c0 -5 5 -10 10 -10 6 0 10 5 10 10 0 6 -4 10 -10 10 -5 0
-10 -4 -10 -10z"/>
<path d="M3176 3714 c-3 -8 0 -16 6 -20 7 -4 6 -9 -3 -15 -18 -11 10 -22 47
-17 32 4 46 28 16 28 -12 0 -23 8 -26 18 -7 21 -33 25 -40 6z"/>
<path d="M5140 3662 c-15 -18 -25 -92 -12 -92 9 0 9 -176 0 -186 -5 -4 -8 -17
-9 -28 0 -20 -1 -20 -11 2 -12 24 -41 31 -32 7 5 -11 2 -13 -11 -9 -11 5 -25
-2 -41 -19 -22 -24 -23 -27 -7 -59 9 -18 23 -42 32 -52 12 -14 13 -20 4 -23
-7 -3 -13 -9 -13 -14 0 -15 40 -50 50 -44 6 4 10 1 10 -4 0 -6 -5 -11 -11 -11
-23 0 -47 -44 -42 -77 5 -28 3 -33 -15 -33 -31 0 -52 -11 -52 -26 0 -8 -10
-14 -25 -14 -18 0 -28 -7 -35 -26 -6 -14 -23 -31 -40 -37 -17 -6 -30 -15 -30
-19 0 -4 -6 -8 -14 -8 -22 0 -27 -28 -8 -40 16 -11 16 -11 0 -6 -12 3 -18 0
-18 -9 0 -9 6 -12 15 -9 18 7 19 -4 5 -41 -13 -33 -57 -33 -52 1 1 11 -6 28
-15 37 -17 15 -22 14 -66 -15 -53 -34 -64 -68 -22 -68 14 0 25 -4 25 -10 0 -5
-13 -7 -30 -3 -17 3 -30 1 -30 -4 0 -13 48 -23 110 -23 75 0 135 23 179 69 22
23 44 41 50 41 17 0 24 2 49 11 20 8 24 5 34 -21 8 -24 16 -30 38 -30 29 0 33
3 80 61 48 58 85 91 132 115 26 13 53 24 61 24 7 0 26 14 42 30 22 23 30 43
35 87 10 92 -12 168 -85 288 -13 22 -31 61 -40 88 -11 32 -28 56 -53 75 -49
35 -53 42 -51 77 2 57 0 61 -34 63 -21 2 -37 -4 -47 -16z m-50 -572 c0 -5 -4
-10 -10 -10 -5 0 -10 5 -10 10 0 6 5 10 10 10 6 0 10 -4 10 -10z m105 -60 c3
-5 -1 -10 -9 -10 -9 0 -16 5 -16 10 0 6 4 10 9 10 6 0 13 -4 16 -10z m-450
-296 c-15 -11 -20 -11 -27 -1 -13 20 -9 24 19 19 25 -5 25 -6 8 -18z"/>
<path d="M3077 3624 c-8 -8 1 -24 14 -24 5 0 9 7 9 15 0 15 -12 20 -23 9z"/>
<path d="M2194 3465 c-4 -9 -4 -18 -2 -21 9 -8 39 8 35 19 -6 18 -27 20 -33 2z"/>
<path d="M4980 3464 c0 -8 5 -12 10 -9 6 4 8 11 5 16 -9 14 -15 11 -15 -7z"/>
<path d="M4132 3391 c-23 -14 -10 -46 21 -49 24 -3 27 0 27 27 0 32 -19 41
-48 22z"/>
<path d="M5040 3140 c0 -5 5 -10 11 -10 5 0 7 5 4 10 -3 6 -8 10 -11 10 -2 0
-4 -4 -4 -10z"/>
<path d="M3645 3100 c-3 -11 -13 -20 -20 -20 -19 0 -77 -58 -70 -70 6 -10 -44
-60 -62 -60 -6 0 -13 -10 -15 -22 -2 -13 -12 -27 -24 -32 -11 -5 -25 -19 -30
-30 -5 -12 -17 -20 -26 -20 -13 1 -15 -3 -8 -22 7 -17 3 -35 -15 -71 -29 -55
-30 -63 -12 -63 14 0 31 20 120 140 31 41 60 80 64 86 14 17 33 48 40 64 4 8
11 20 15 25 37 46 68 89 68 96 0 18 -19 18 -25 -1z"/>
<path d="M4074 3036 c-13 -11 -16 -18 -8 -26 13 -13 88 15 79 30 -9 15 -48 12
-71 -4z"/>
<path d="M4317 2940 c20 -19 37 -28 47 -24 9 3 16 9 16 13 0 11 -56 41 -76 41
-14 0 -12 -6 13 -30z"/>
<path d="M5520 2753 c0 -5 9 -19 19 -32 22 -29 36 -13 15 17 -15 21 -34 30
-34 15z"/>
<path d="M2102 2698 c6 -18 28 -21 28 -4 0 9 -7 16 -16 16 -9 0 -14 -5 -12
-12z"/>
<path d="M5513 2680 c9 -6 17 -18 17 -25 0 -8 4 -15 10 -15 5 0 30 -20 54 -45
25 -25 50 -45 56 -45 22 0 8 34 -27 68 -23 22 -33 37 -25 40 24 8 11 21 -20
20 -18 0 -44 2 -58 6 -21 6 -22 6 -7 -4z"/>
<path d="M6415 2680 c3 -5 11 -10 16 -10 6 0 7 5 4 10 -3 6 -11 10 -16 10 -6
0 -7 -4 -4 -10z"/>
<path d="M4760 2220 c-7 -4 -33 -6 -59 -4 -25 2 -68 -4 -95 -12 -27 -7 -68
-14 -91 -14 -22 0 -50 -7 -63 -15 -20 -15 -24 -14 -51 6 -25 19 -37 21 -83 15
-29 -4 -69 -9 -88 -10 -19 -1 -46 -8 -59 -16 -16 -8 -60 -13 -125 -12 -55 0
-109 -4 -120 -10 -11 -6 -48 -13 -83 -15 -34 -2 -82 -12 -105 -21 -24 -10 -63
-24 -88 -31 -25 -7 -67 -21 -95 -31 -27 -10 -59 -21 -71 -24 -11 -4 -34 -19
-50 -34 -16 -16 -37 -31 -46 -35 -42 -15 -3 -58 48 -54 15 2 20 -6 22 -33 4
-43 18 -60 46 -60 18 0 22 -6 24 -36 3 -42 26 -81 53 -89 10 -4 19 -10 19 -14
0 -21 142 -131 169 -131 5 0 11 -3 13 -7 2 -5 28 -20 58 -35 30 -16 78 -40
105 -54 81 -43 84 -44 98 -38 8 3 17 -2 20 -10 4 -9 17 -15 29 -15 30 2 78
-18 92 -37 7 -9 34 -17 71 -20 33 -3 76 -8 94 -12 21 -5 92 0 175 11 78 10
146 18 153 19 7 1 14 7 17 15 3 7 18 13 33 13 15 0 47 7 71 15 47 17 93 24
196 31 39 2 72 8 75 12 4 4 18 13 34 19 15 7 27 17 27 23 0 5 4 10 10 10 5 0
32 16 59 35 26 19 55 35 64 35 9 0 22 9 29 19 14 20 14 20 26 0 10 -16 9 -19
-5 -20 -13 0 -11 -3 7 -11 14 -6 20 -12 14 -15 -16 -6 -5 -43 12 -43 8 0 14
-10 14 -25 0 -16 -6 -25 -16 -25 -13 0 -14 -3 -4 -15 13 -15 12 -16 -27 -27
-8 -2 -7 -10 6 -27 23 -30 54 -22 71 19 6 16 18 31 26 34 21 8 17 39 -6 54
-26 16 -25 26 3 53 l22 22 -22 -6 c-13 -3 -23 -1 -23 4 0 5 5 9 10 9 7 0 7 7
0 21 -7 11 -18 18 -25 15 -8 -3 -17 0 -21 6 -4 6 -3 8 4 4 6 -3 13 3 17 14 3
11 12 20 19 20 7 0 21 8 32 18 11 10 32 22 46 25 15 4 30 16 33 27 3 11 10 20
14 20 8 0 63 105 75 142 8 25 -25 76 -53 83 -13 3 -28 12 -35 18 -22 24 -56
76 -56 86 0 17 -57 51 -109 64 -30 8 -62 24 -76 39 -18 19 -34 26 -68 26 -24
1 -64 6 -88 13 -113 28 -322 46 -349 29z m-640 -171 c170 12 211 11 271 -9 34
-11 68 -29 76 -40 8 -12 20 -17 31 -13 13 4 11 0 -6 -16 -18 -18 -20 -26 -12
-41 8 -15 8 -20 -2 -20 -8 0 -7 -5 4 -16 22 -23 39 -9 31 26 -4 22 1 40 18 66
l24 35 60 -6 c33 -3 81 -7 107 -8 27 -1 54 -9 65 -20 11 -9 28 -17 39 -17 28
-1 61 -31 67 -63 4 -24 0 -30 -22 -39 -14 -6 -39 -11 -56 -12 -23 -1 -31 -6
-33 -23 -4 -29 -16 -38 -91 -62 -91 -30 -134 -28 -161 6 -13 17 -20 37 -17 51
6 30 -19 41 -38 16 -8 -11 -15 -31 -15 -46 0 -45 -32 -68 -93 -68 -29 0 -57 4
-62 9 -6 5 -28 14 -50 21 -22 7 -57 24 -79 37 -21 14 -53 26 -70 28 -34 3
-128 38 -164 61 -19 13 -21 20 -16 57 6 42 20 59 79 98 22 15 39 18 65 14 19
-4 42 -6 50 -6z m1325 -249 c3 -5 2 -10 -4 -10 -5 0 -13 5 -16 10 -3 6 -2 10
4 10 5 0 13 -4 16 -10z m-1247 -163 c35 -33 11 -40 -67 -19 -78 20 -93 33 -46
43 43 9 87 -1 113 -24z m289 -56 c-7 -27 11 -51 38 -51 16 0 25 -6 25 -15 0
-19 -70 -21 -89 -2 -10 9 -15 9 -18 0 -7 -19 -33 -3 -33 20 0 22 45 66 69 67
8 0 11 -7 8 -19z m903 -111 c0 -5 -4 -10 -10 -10 -5 0 -10 5 -10 10 0 6 5 10
10 10 6 0 10 -4 10 -10z m-10 -70 c0 -5 -4 -10 -10 -10 -5 0 -10 5 -10 10 0 6
5 10 10 10 6 0 10 -4 10 -10z m-20 -30 c0 -5 -4 -10 -10 -10 -5 0 -10 5 -10
10 0 6 5 10 10 10 6 0 10 -4 10 -10z"/>
<path d="M5721 2214 c0 -11 3 -14 6 -6 3 7 2 16 -1 19 -3 4 -6 -2 -5 -13z"/>
<path d="M6230 1920 c-13 -8 -12 -10 3 -10 9 0 17 5 17 10 0 12 -1 12 -20 0z"/>
<path d="M2060 1850 c0 -5 5 -10 10 -10 6 0 10 5 10 10 0 6 -4 10 -10 10 -5 0
-10 -4 -10 -10z"/>
<path d="M6025 1570 c-3 -5 -1 -10 4 -10 6 0 11 5 11 10 0 6 -2 10 -4 10 -3 0
-8 -4 -11 -10z"/>
<path d="M2390 1436 c0 -9 5 -16 10 -16 6 0 10 4 10 9 0 6 -4 13 -10 16 -5 3
-10 -1 -10 -9z"/>
<path d="M5298 1323 c7 -3 16 -2 19 1 4 3 -2 6 -13 5 -11 0 -14 -3 -6 -6z"/>
<path d="M1497 674 c-10 -11 4 -33 18 -28 8 3 11 12 8 20 -5 15 -16 18 -26 8z"/>
<path d="M2910 630 c0 -9 32 -30 46 -30 4 0 -1 9 -11 20 -19 21 -35 26 -35 10z"/>
<path d="M1270 580 c-8 -5 -11 -12 -7 -16 4 -4 13 -2 19 4 15 15 7 24 -12 12z"/>
<path d="M2320 580 c0 -5 5 -10 11 -10 5 0 7 5 4 10 -3 6 -8 10 -11 10 -2 0
-4 -4 -4 -10z"/>
<path d="M3054 524 c3 -9 6 -18 6 -20 0 -9 29 -3 36 8 4 6 3 8 -3 5 -6 -4 -13
0 -17 8 -3 8 -10 15 -17 15 -6 0 -8 -7 -5 -16z"/>
<path d="M3107 497 c-8 -21 5 -35 38 -42 23 -6 27 -5 19 4 -6 7 -20 14 -30 15
-11 2 -18 10 -16 20 3 19 -4 21 -11 3z"/>
<path d="M669 210 c-26 -14 -68 -43 -93 -65 -26 -22 -63 -55 -84 -72 -20 -18
-46 -33 -57 -33 -11 -1 -36 -9 -55 -20 -35 -19 -34 -19 448 -20 405 0 482 2
482 14 0 8 -11 17 -25 20 -14 4 -34 14 -45 24 -35 32 -47 40 -66 44 -11 2 -18
11 -16 21 4 21 -5 22 -24 2 -27 -27 -47 -5 -61 69 -5 28 -10 31 -28 16 -9 -7
-18 -10 -22 -6 -3 3 -1 6 5 6 7 0 12 7 12 16 0 11 -5 14 -17 9 -10 -4 -22 -7
-28 -6 -5 1 -30 4 -54 7 -40 6 -44 5 -39 -13 9 -35 -49 -57 -77 -29 -11 10
-11 16 -2 26 10 10 8 12 -6 7 -9 -4 -36 -3 -60 1 -35 6 -50 3 -88 -18z"/>
<path d="M840 210 c0 -5 5 -10 10 -10 6 0 10 5 10 10 0 6 -4 10 -10 10 -5 0
-10 -4 -10 -10z"/>
</g>
</svg>
